<svg xmlns="http://www.w3.org/2000/svg" width="20" height="25" viewBox="0 0 20 25" fill="none">
  <path d="M14 3.31787C16.175 3.33107 17.353 3.43777 18.121 4.28257C19 5.24947 19 6.80487 19 9.91567V16.5157C19 19.6276 19 21.183 18.121 22.1499C17.243 23.1157 15.828 23.1157 13 23.1157H7C4.172 23.1157 2.757 23.1157 1.879 22.1499C1 21.1819 1 19.6276 1 16.5157V9.91567C1 6.80487 1 5.24947 1.879 4.28257C2.647 3.43777 3.825 3.33107 6 3.31787" stroke="white" stroke-width="2"/>
  <path d="M6 14.3158H14M5 10.4658H15M7 18.1658H13" stroke="white" stroke-width="2" stroke-linecap="round"/>
  <path d="M6 2.76572C6 2.32812 6.15804 1.90843 6.43934 1.599C6.72064 1.28956 7.10218 1.11572 7.5 1.11572H12.5C12.8978 1.11572 13.2794 1.28956 13.5607 1.599C13.842 1.90843 14 2.32812 14 2.76572V3.86572C14 4.30333 13.842 4.72301 13.5607 5.03245C13.2794 5.34188 12.8978 5.51572 12.5 5.51572H7.5C7.10218 5.51572 6.72064 5.34188 6.43934 5.03245C6.15804 4.72301 6 4.30333 6 3.86572V2.76572Z" stroke="white" stroke-width="2"/>
</svg>