<svg xmlns="http://www.w3.org/2000/svg" width="25" height="25" viewBox="0 0 25 25" fill="none">
  <path d="M24 9.39533C23.998 10.2466 23.7512 11.0764 23.2936 11.7708C22.8359 12.4652 22.1898 12.9902 21.4439 13.2738C21.0361 13.4403 20.6032 13.5242 20.1671 13.5213C19.376 13.5189 18.605 13.2533 17.9598 12.7609C17.3145 12.2684 16.8266 11.5732 16.5629 10.7707C16.4081 10.3314 16.3301 9.86511 16.3329 9.39533C16.3366 9.86492 16.2583 10.3318 16.1029 10.7707C15.8395 11.5731 15.3518 12.2683 14.7067 12.7607C14.0617 13.2532 13.2909 13.5189 12.5 13.5213C11.7091 13.5189 10.9383 13.2532 10.2933 12.7607C9.64822 12.2683 9.16054 11.5731 8.89708 10.7707C8.74222 10.3314 8.66424 9.86512 8.66708 9.39533C8.66957 9.86492 8.59249 10.3318 8.43708 10.7707C8.17356 11.5734 7.68568 12.2686 7.04039 12.7611C6.3951 13.2536 5.62401 13.5191 4.83292 13.5213C4.39778 13.524 3.96265 13.4411 3.55611 13.2738C2.81029 12.9901 2.16429 12.465 1.70667 11.7707C1.24905 11.0763 1.00221 10.2466 1 9.39533L1.57438 7.22396L2.95438 2.98825C3.12958 2.44939 3.45625 1.98254 3.88909 1.65244C4.32193 1.32234 4.83949 1.14534 5.37 1.146H19.63C20.1603 1.14562 20.6776 1.32274 21.1102 1.65282C21.5428 1.98291 21.8692 2.4496 22.0444 2.98825L23.4244 7.22396L24 9.39533Z" stroke="white" stroke-width="2" stroke-linecap="round" stroke-linejoin="round"/>
  <path d="M21.4437 13.2739V20.3968C21.4434 21.1258 21.1741 21.8249 20.6951 22.3404C20.216 22.856 19.5664 23.1457 18.8889 23.1461H6.10958C5.77396 23.1463 5.4416 23.0753 5.13149 22.9372C4.82137 22.7991 4.53958 22.5966 4.30221 22.3413C4.06484 22.086 3.87653 21.7828 3.74806 21.4492C3.61959 21.1155 3.55347 20.7579 3.55347 20.3968V13.2739M8.66693 19.0214H16.3328" stroke="white" stroke-width="2" stroke-linecap="round" stroke-linejoin="round"/>
</svg>