<svg xmlns="http://www.w3.org/2000/svg" width="34" height="34" viewBox="0 0 34 34" fill="none">
  <path d="M1 17C1 9.4576 1 5.6864 3.3424 3.3424C5.688 1 9.4576 1 17 1C24.5424 1 28.3136 1 30.656 3.3424C33 5.688 33 9.4576 33 17C33 24.5424 33 28.3136 30.656 30.656C28.3152 33 24.5424 33 17 33C9.4576 33 5.6864 33 3.3424 30.656C1 28.3152 1 24.5424 1 17Z" stroke="#949292" stroke-width="1.6"/>
  <path d="M23.4001 13.8004C25.1674 13.8004 26.6001 12.3677 26.6001 10.6004C26.6001 8.83308 25.1674 7.40039 23.4001 7.40039C21.6328 7.40039 20.2001 8.83308 20.2001 10.6004C20.2001 12.3677 21.6328 13.8004 23.4001 13.8004Z" stroke="#949292" stroke-width="1.6"/>
  <path d="M1 17.8008L3.8032 15.348C4.50582 14.7337 5.41559 14.4093 6.34835 14.4405C7.28112 14.4717 8.16719 14.8562 8.8272 15.516L15.6912 22.38C16.2238 22.9125 16.9273 23.2401 17.6777 23.3051C18.4281 23.3701 19.1773 23.1683 19.7936 22.7352L20.272 22.3992C21.1609 21.7749 22.2354 21.4705 23.3197 21.5359C24.404 21.6013 25.4341 22.0326 26.2416 22.7592L31.4 27.4008" stroke="#949292" stroke-width="1.6" stroke-linecap="round"/>
</svg>