<svg xmlns="http://www.w3.org/2000/svg" width="24" height="25" viewBox="0 0 24 25" fill="none">
  <path d="M17.117 3.0601L17.8309 2.3462C18.3989 1.77833 19.1693 1.45937 19.9725 1.45947C20.7757 1.45958 21.5459 1.77874 22.1138 2.34675C22.6816 2.91476 23.0006 3.68509 23.0005 4.48828C23.0004 5.29146 22.6812 6.06171 22.1132 6.62957L21.3982 7.34347C21.3982 7.34347 19.8824 7.25437 18.5448 5.91568C17.2061 4.57809 17.117 3.0612 17.117 3.0612L10.5556 9.62156C10.1112 10.066 9.88895 10.2882 9.69756 10.5334C9.47206 10.8216 9.27956 11.1351 9.12116 11.4662C8.98806 11.7467 8.88906 12.0448 8.68996 12.641L8.05306 14.5495M8.05306 14.5495L7.64166 15.7837C7.59328 15.9277 7.58601 16.0822 7.62067 16.2301C7.65533 16.3779 7.73055 16.5132 7.83787 16.6206C7.94519 16.728 8.08036 16.8034 8.22817 16.8382C8.37598 16.873 8.53057 16.8659 8.67456 16.8177L9.90986 16.4063M8.05306 14.5495L9.90986 16.4063M21.3993 7.34237L14.8378 13.9038C14.3934 14.3482 14.1712 14.5704 13.9259 14.7618C13.6369 14.9873 13.3241 15.1805 12.9931 15.3382C12.7126 15.4713 12.4145 15.5703 11.8183 15.7694L9.90986 16.4063" stroke="white" stroke-width="2"/>
  <path d="M22.9999 12.4594C22.9999 18.5347 18.0753 23.4593 12 23.4593C5.92469 23.4593 1 18.5347 1 12.4594C1 6.38414 5.92469 1.45947 12 1.45947" stroke="white" stroke-width="2" stroke-linecap="round"/>
</svg>