<svg xmlns="http://www.w3.org/2000/svg" width="13" height="612" viewBox="0 0 13 612" fill="none">
  <path d="M7.01382 0.666684C4.06831 0.659054 1.67432 3.04067 1.66668 5.98618C1.65905 8.93169 4.04067 11.3257 6.98618 11.3333C9.93169 11.3409 12.3257 8.95933 12.3333 6.01382C12.3409 3.06831 9.95933 0.674315 7.01382 0.666684ZM5.45942 600.665C2.51391 600.657 0.119916 603.039 0.112286 605.984C0.104655 608.93 2.48628 611.324 5.43178 611.331C8.37729 611.339 10.7713 608.957 10.7789 606.012C10.7865 603.066 8.40493 600.672 5.45942 600.665ZM6 5.99741L4.4456 605.995L6.4456 606.001L8 6.00259L6 5.99741Z" fill="#B2E0D0"/>
</svg>