<svg xmlns="http://www.w3.org/2000/svg" width="26" height="24" viewBox="0 0 26 24" fill="none">
  <path d="M8.26306 16.9936C8.26306 16.9936 11.2977 16.7526 13.3988 14.5863C15.4998 12.42 15.7335 9.29102 15.7335 9.29102L20.8521 17.5845C21.2546 18.2362 21.4296 19.0099 21.348 19.7779C21.2663 20.5458 20.9331 21.2621 20.4033 21.8084C19.8734 22.3547 19.1787 22.6983 18.4339 22.7825C17.6891 22.8666 16.9387 22.6862 16.3067 22.2712L8.26306 16.9936Z" stroke="white" stroke-width="2"/>
  <path d="M8.26316 16.7804C12.2745 16.7804 15.5263 13.4275 15.5263 9.29156C15.5263 5.1556 12.2745 1.80273 8.26316 1.80273C4.25183 1.80273 1 5.1556 1 9.29156C1 13.4275 4.25183 16.7804 8.26316 16.7804Z" stroke="white" stroke-width="2"/>
  <path d="M2.09399 16.4104L15.167 2.93115M20.8085 21.5463H24.9999" stroke="white" stroke-width="2" stroke-linecap="round" stroke-linejoin="round"/>
</svg>