<svg xmlns="http://www.w3.org/2000/svg" width="23" height="26" viewBox="0 0 23 26" fill="none">
  <path d="M12.5 2C14.7543 2 16.9163 2.86721 18.5104 4.41084C20.1045 5.95448 21 8.0481 21 10.2311C21 13.7093 18.4762 17.4999 13.4938 21.6433C13.2168 21.8737 12.8636 22.0003 12.4984 22C12.1331 21.9997 11.7802 21.8725 11.5035 21.6416L11.174 21.3647C6.41226 17.3293 4 13.6316 4 10.2311C4 8.0481 4.89553 5.95448 6.48959 4.41084C8.08365 2.86721 10.2457 2 12.5 2ZM12.5 7.06531C11.6329 7.06531 10.8014 7.39885 10.1883 7.99256C9.57521 8.58626 9.23077 9.3915 9.23077 10.2311C9.23077 11.0708 9.57521 11.876 10.1883 12.4697C10.8014 13.0634 11.6329 13.397 12.5 13.397C13.3671 13.397 14.1986 13.0634 14.8117 12.4697C15.4248 11.876 15.7692 11.0708 15.7692 10.2311C15.7692 9.3915 15.4248 8.58626 14.8117 7.99256C14.1986 7.39885 13.3671 7.06531 12.5 7.06531Z" fill="#FDFFF9"/>
</svg>