<svg xmlns="http://www.w3.org/2000/svg" width="60" height="25" viewBox="0 0 20 20" fill="none">
    <path d="M3.33333 18.3335H16.6667" stroke="#FFFCFC" stroke-width="1.5" stroke-linecap="round"/>
    <path d="M15.2809 6.75923L15.8992 6.14256C16.1427 5.89913 16.3359 5.61011 16.4677 5.29202C16.5995 4.97394 16.6673 4.633 16.6674 4.28869C16.6674 3.94438 16.5996 3.60343 16.4679 3.28531C16.3362 2.9672 16.1431 2.67814 15.8996 2.43465C15.6562 2.19115 15.3672 1.99799 15.0491 1.8662C14.731 1.7344 14.3901 1.66654 14.0458 1.6665C13.7015 1.66647 13.3605 1.73424 13.0424 1.86597C12.7243 1.9977 12.4352 2.19079 12.1917 2.43423L11.5734 3.05256C11.5734 3.05256 11.6509 4.3659 12.8092 5.52423C13.9676 6.68256 15.2809 6.76006 15.2809 6.76006L9.60005 12.4409C9.21505 12.8259 9.02338 13.0176 8.81088 13.1834C8.56088 13.3784 8.29005 13.5459 8.00338 13.6826C7.76088 13.7984 7.50255 13.8842 6.98672 14.0559L4.79838 14.7859M11.5734 3.05173L5.89255 8.7334C5.50755 9.1184 5.31505 9.31006 5.15005 9.52256C4.95481 9.77279 4.78743 10.0436 4.65088 10.3301C4.53505 10.5726 4.44922 10.8309 4.27672 11.3467L3.54755 13.5351M3.54755 13.5351L3.37005 14.0692C3.32844 14.1938 3.32236 14.3275 3.35249 14.4553C3.38262 14.5831 3.44776 14.7 3.54062 14.7928C3.63347 14.8857 3.75036 14.9508 3.87818 14.981C4.00599 15.0111 4.13967 15.005 4.26422 14.9634L4.79838 14.7859M3.54755 13.5351L4.79838 14.7859" stroke="#FFFCFC" stroke-width="1.5"/>
</svg>