<svg xmlns="http://www.w3.org/2000/svg" width="24" height="26" viewBox="0 0 24 26" fill="none">
  <path d="M22 14.8591H16V11.9791C16.028 10.7107 16.4288 9.47344 17.159 8.40104C17.8938 7.25513 18.1593 5.9018 17.907 4.58893C17.6547 3.27605 16.9014 2.09152 15.785 1.25228C14.9791 0.642343 14.0163 0.237408 12.991 0.077209C11.9657 -0.0829897 10.9131 0.00705254 9.93658 0.3385C8.96006 0.669947 8.09314 1.23141 7.42088 1.96779C6.74862 2.70418 6.29413 3.59018 6.102 4.53885C5.82545 5.87201 6.09201 7.25301 6.85 8.41404C7.56769 9.45086 7.96544 10.6505 8 11.8826V14.8591H2C1.46957 14.8591 0.960859 15.0547 0.585786 15.4029C0.210714 15.7511 0 16.2234 0 16.7159V20.4295C0.0007935 20.9218 0.211762 21.3936 0.586663 21.7417C0.961564 22.0898 1.46981 22.2856 2 22.2864V24.1432C2.00079 24.6354 2.21176 25.1073 2.58666 25.4553C2.96156 25.8034 3.46981 25.9993 4 26H20C20.5302 25.9993 21.0384 25.8034 21.4133 25.4553C21.7882 25.1073 21.9992 24.6354 22 24.1432V22.2864C22.5302 22.2856 23.0384 22.0898 23.4133 21.7417C23.7882 21.3936 23.9992 20.9218 24 20.4295V16.7159C24 16.2234 23.7893 15.7511 23.4142 15.4029C23.0391 15.0547 22.5304 14.8591 22 14.8591ZM8.07 4.87308C8.1771 4.33971 8.40879 3.83461 8.74876 3.39331C9.08872 2.952 9.52871 2.58522 10.0378 2.31876C10.5468 2.0523 11.1126 1.89264 11.6953 1.851C12.2779 1.80936 12.8634 1.88676 13.4104 2.07776C13.9573 2.26875 14.4526 2.5687 14.8613 2.95651C15.27 3.34431 15.5822 3.81055 15.776 4.32242C15.9698 4.83428 16.0403 5.37935 15.9828 5.91928C15.9253 6.4592 15.741 6.98086 15.443 7.44757C14.7006 8.57289 14.2307 9.83468 14.066 11.1454H9.94C9.78265 9.83587 9.31256 8.57542 8.564 7.45592C8.06105 6.68129 7.88506 5.76112 8.07 4.87308ZM14 13.0022V14.8591H10V13.0022H14ZM20 24.1432H4V22.2864H20V24.1432ZM2 20.4295V16.7159H22V20.4295H2Z" fill="white"/>
</svg>